<?xml version="1.0" encoding="utf-8"?>
<!-- Generator: Adobe Illustrator 15.0.0, SVG Export Plug-In . SVG Version: 6.00 Build 0)  -->
<!DOCTYPE svg PUBLIC "-//W3C//DTD SVG 1.1//EN" "http://www.w3.org/Graphics/SVG/1.1/DTD/svg11.dtd">
<svg version="1.1" id="Layer_1" xmlns="http://www.w3.org/2000/svg" xmlns:xlink="http://www.w3.org/1999/xlink" x="0px" y="0px"
	 width="94px" height="25px" viewBox="0 0 94 25" enable-background="new 0 0 94 25" xml:space="preserve">
<path fill="#E50914" d="M8.396,23.963L3.564,9.949L3.492,9.958l0.125,14.818H0V0.137h3.939l5.037,14.867l0,0V0.137h3.617v23.567
	L8.396,23.963z"/>
<path fill="#E50914" d="M21.182,3.879l-0.023,5.728l4.737,0.148l-0.01,3.487l-4.768-0.015l-0.065,5.955l5.425-0.194v3.563
	l-9.493,0.54V0.088h9.493v3.791H21.182z"/>
<path fill="#E50914" d="M37.843,3.635l0.004,18.251l-3.943,0.071l0.128-18.323h-3.874V0.088h11.43l-0.063,3.488L37.843,3.635z"/>
<path fill="#E50914" d="M55.99,5.158l-0.015,1.456l-3.368,0.121l0.014-1.271c0.018-1.698-0.669-2.463-2.021-2.474
	c-1.354-0.011-2.054,0.74-2.069,2.135l-0.117,11.579c-0.016,1.394,0.639,2.156,1.989,2.169c1.354,0.011,2.021-0.741,2.04-2.438
	l0.037-3.638l-1.98-0.015l0.031-2.971l5.411,0.047l-0.07,6.941c-0.033,3.211-2.065,5.073-5.563,5.044
	c-3.464-0.03-5.425-1.928-5.394-5.139l0.119-11.64c0.034-3.214,2.033-5.074,5.497-5.045C54.03,0.049,56.022,1.947,55.99,5.158z"/>
<path fill="#E50914" d="M59.451,22.208l-0.032-22.12h3.904v22.225L59.451,22.208z"/>
<path fill="#E50914" d="M72.613,3.453l-0.069,6.771l5.526-0.064l-0.036,3.351l-5.524,0.063l-0.098,9.368l-3.903-0.049l0.233-22.742
	l10.793-0.132L79.501,3.37L72.613,3.453z"/>
<path fill="#E50914" d="M93.986,5.715L93.95,6.331l-3.775,0.175l0.053-0.888c0.08-1.367-0.576-2.113-1.864-2.169
	c-1.287-0.058-2.029,0.628-2.109,1.996L86.235,5.75c-0.082,1.403,0.512,2.626,3.002,4.791c3.405,2.96,4.613,4.997,4.445,7.867
	l-0.071,1.195c-0.201,3.415-2.486,5.269-6.351,5.099s-5.921-2.214-5.721-5.634l0.095-1.601l3.775-0.177l-0.101,1.706
	c-0.089,1.503,0.604,2.289,2.074,2.354c1.472,0.063,2.252-0.657,2.341-2.157l0.046-0.784c0.089-1.506-0.613-2.734-3.105-4.896
	c-3.406-2.962-4.503-4.996-4.338-7.795l0.029-0.514c0.202-3.416,2.413-5.271,6.131-5.108C92.205,0.259,94.188,2.3,93.986,5.715z"/>
</svg>
